<svg width="27" height="27" viewBox="0 0 27 27" fill="none" xmlns="http://www.w3.org/2000/svg">
<path d="M3.33594 4.14599C3.33594 3.48625 3.59947 2.85354 4.06855 2.38703C4.53764 1.92053 5.17385 1.65845 5.83724 1.65845H15.634C15.9898 1.65845 16.3422 1.72815 16.671 1.86358C16.9997 1.99901 17.2985 2.19751 17.5501 2.44775C17.8017 2.69799 18.0013 2.99506 18.1375 3.32201C18.2737 3.64897 18.3437 3.99939 18.3437 4.35328V10.7794H20.6366C20.9924 10.7794 21.3448 10.8491 21.6736 10.9846C22.0023 11.12 22.3011 11.3185 22.5527 11.5687C22.8043 11.819 23.0039 12.116 23.1401 12.443C23.2763 12.77 23.3463 13.1204 23.3463 13.4743V24.0463C23.3463 24.2662 23.2585 24.4771 23.1021 24.6326C22.9458 24.7881 22.7337 24.8755 22.5126 24.8755H19.1775V21.1442C19.1775 20.8143 19.0457 20.498 18.8112 20.2647C18.5767 20.0315 18.2586 19.9004 17.9269 19.9004H8.75542C8.42373 19.9004 8.10562 20.0315 7.87108 20.2647C7.63654 20.498 7.50477 20.8143 7.50477 21.1442V24.8755H4.1697C3.94858 24.8755 3.7365 24.7881 3.58014 24.6326C3.42378 24.4771 3.33594 24.2662 3.33594 24.0463V4.14599ZM17.51 21.5588V24.8755H14.1749V21.5588H17.51ZM12.5074 21.5588V24.8755H9.17231V21.5588H12.5074ZM10.0061 7.04812C10.0061 6.71825 9.87431 6.40189 9.63977 6.16864C9.40522 5.93539 9.08712 5.80435 8.75542 5.80435C8.42373 5.80435 8.10562 5.93539 7.87108 6.16864C7.63654 6.40189 7.50477 6.71825 7.50477 7.04812C7.50477 7.37799 7.63654 7.69435 7.87108 7.9276C8.10562 8.16085 8.42373 8.29189 8.75542 8.29189C9.08712 8.29189 9.40522 8.16085 9.63977 7.9276C9.87431 7.69435 10.0061 7.37799 10.0061 7.04812ZM10.0061 11.194C10.0061 10.8642 9.87431 10.5478 9.63977 10.3145C9.40522 10.0813 9.08712 9.95025 8.75542 9.95025C8.42373 9.95025 8.10562 10.0813 7.87108 10.3145C7.63654 10.5478 7.50477 10.8642 7.50477 11.194C7.50477 11.5239 7.63654 11.8403 7.87108 12.0735C8.10562 12.3068 8.42373 12.4378 8.75542 12.4378C9.08712 12.4378 9.40522 12.3068 9.63977 12.0735C9.87431 11.8403 10.0061 11.5239 10.0061 11.194ZM8.75542 16.5837C9.08712 16.5837 9.40522 16.4527 9.63977 16.2194C9.87431 15.9862 10.0061 15.6698 10.0061 15.3399C10.0061 15.0101 9.87431 14.6937 9.63977 14.4604C9.40522 14.2272 9.08712 14.0962 8.75542 14.0962C8.42373 14.0962 8.10562 14.2272 7.87108 14.4604C7.63654 14.6937 7.50477 15.0101 7.50477 15.3399C7.50477 15.6698 7.63654 15.9862 7.87108 16.2194C8.10562 16.4527 8.42373 16.5837 8.75542 16.5837ZM14.1749 7.04812C14.1749 6.71825 14.0431 6.40189 13.8086 6.16864C13.5741 5.93539 13.2559 5.80435 12.9243 5.80435C12.5926 5.80435 12.2745 5.93539 12.0399 6.16864C11.8054 6.40189 11.6736 6.71825 11.6736 7.04812C11.6736 7.37799 11.8054 7.69435 12.0399 7.9276C12.2745 8.16085 12.5926 8.29189 12.9243 8.29189C13.2559 8.29189 13.5741 8.16085 13.8086 7.9276C14.0431 7.69435 14.1749 7.37799 14.1749 7.04812ZM12.9243 12.4378C13.2559 12.4378 13.5741 12.3068 13.8086 12.0735C14.0431 11.8403 14.1749 11.5239 14.1749 11.194C14.1749 10.8642 14.0431 10.5478 13.8086 10.3145C13.5741 10.0813 13.2559 9.95025 12.9243 9.95025C12.5926 9.95025 12.2745 10.0813 12.0399 10.3145C11.8054 10.5478 11.6736 10.8642 11.6736 11.194C11.6736 11.5239 11.8054 11.8403 12.0399 12.0735C12.2745 12.3068 12.5926 12.4378 12.9243 12.4378ZM14.1749 15.3399C14.1749 15.0101 14.0431 14.6937 13.8086 14.4604C13.5741 14.2272 13.2559 14.0962 12.9243 14.0962C12.5926 14.0962 12.2745 14.2272 12.0399 14.4604C11.8054 14.6937 11.6736 15.0101 11.6736 15.3399C11.6736 15.6698 11.8054 15.9862 12.0399 16.2194C12.2745 16.4527 12.5926 16.5837 12.9243 16.5837C13.2559 16.5837 13.5741 16.4527 13.8086 16.2194C14.0431 15.9862 14.1749 15.6698 14.1749 15.3399ZM17.0931 16.5837C17.4248 16.5837 17.7429 16.4527 17.9774 16.2194C18.212 15.9862 18.3437 15.6698 18.3437 15.3399C18.3437 15.0101 18.212 14.6937 17.9774 14.4604C17.7429 14.2272 17.4248 14.0962 17.0931 14.0962C16.7614 14.0962 16.4433 14.2272 16.2087 14.4604C15.9742 14.6937 15.8424 15.0101 15.8424 15.3399C15.8424 15.6698 15.9742 15.9862 16.2087 16.2194C16.4433 16.4527 16.7614 16.5837 17.0931 16.5837Z" fill="white"/>
</svg>
