<svg width="23" height="23" viewBox="0 0 23 23" fill="none" xmlns="http://www.w3.org/2000/svg">
<path fill-rule="evenodd" clip-rule="evenodd" d="M22.4652 12.6651C21.7688 18.2186 17.0053 22.5158 11.2326 22.5158C5.45985 22.5158 0.69633 18.2186 0 12.6651H6.51585C6.98897 12.6651 7.43078 12.4299 7.69322 12.0385L9.48174 9.37048L10.7802 17.1182C10.9911 18.3766 12.6418 18.7289 13.3533 17.6675L16.7067 12.6651H22.4652ZM0 9.85067C0.69633 4.29726 5.45985 0 11.2326 0C17.0053 0 21.7688 4.29726 22.4652 9.85067H15.9493C15.4762 9.85067 15.0344 10.0859 14.7719 10.4773L12.9834 13.1453L11.685 5.3976C11.4741 4.13925 9.82342 3.7869 9.11187 4.84836L5.75856 9.85067H0Z" fill="white"/>
</svg>
